<svg height="38" viewBox="0 0 149 38" width="149" xmlns="http://www.w3.org/2000/svg" xmlns:xlink="http://www.w3.org/1999/xlink"><mask id="a" fill="#fff"><path d="m87.8051645.0008h4.9623879v29.9392h-4.9623879z" fill="#fff" fill-rule="evenodd"/></mask><g fill="#fff" fill-rule="evenodd" transform="translate(-.000062)"><path d="m23.4330622 9.4437c-.723.437-1.583.715-2.574.834-.993.121-2.002.158-3.024.113-1.024-.045-1.837-.051-2.438-.023-.331 0-.571.076-.722.228-.151.149-.248.323-.293.518-.046.197-.06.422-.046.678.016.256.024.504.024.746-.06 1.443-.121 2.888-.18 4.332-.061 1.445-.091 2.888-.091 4.334v2.98c0 1.084.022 2.19.068 3.319.044 1.127.096 2.234.157 3.318.06 1.084.165 2.062.317 2.934.12.603.165 1.076.134 1.421-.029.348-.269.747-.722 1.198-.302.3-.671.609-1.106.925-.436.317-.864.475-1.286.475-.451 0-.789-.158-1.015-.475-.225-.316-.385-.669-.474-1.06-.211-.994-.361-2.084-.452-3.274-.09-1.189-.141-2.4-.158-3.634-.015-1.233-.015-2.461 0-3.68.017-1.217.024-2.34.024-3.363 0-1.686.022-3.348.067-4.989.045-1.64.097-3.289.158-4.943.03-.601.014-1.045-.046-1.332-.06-.285-.45-.414-1.174-.385-.963.032-1.932.053-2.91.069-.978.015-1.964.023-2.956.023-.242 0-.511-.008-.812-.023-.302-.016-.581-.061-.836-.135-.256-.076-.482-.195-.677-.361s-.323-.414-.384-.745c-.029-.271.046-.566.226-.88.182-.317.422-.61.723-.881.3-.272.609-.504.923-.7.318-.195.595-.324.837-.384.512-.09 1.075-.069 1.692.068.617.135 1.197.203 1.738.203 2.165 0 4.304-.068 6.409-.203 2.106-.137 4.242-.232 6.41-.293.3 0 .759-.045 1.376-.137.617-.089 1.225-.134 1.829-.134.631 0 1.18.084 1.647.248.467.166.699.49.699.97 0 .963-.361 1.663-1.082 2.1"/><path d="m25.8582622 11.4673c.988 0 1.899.15 2.736.453.838.301 1.565.713 2.182 1.234.618.522 1.098 1.139 1.441 1.852.343.715.515 1.496.515 2.346 0 1.427-.461 2.588-1.378 3.478-.922.893-2.161 1.572-3.726 2.037-1.042.33-1.893.563-2.551.7-.66.138-1.242.226-1.749.267-.51.041-.975.068-1.4.082-.427.016-.913.049-1.461.104-.303.412-.192 1.125.328 2.14.468.961 1.167 1.707 2.1 2.242.933.536 1.976.805 3.128.805h.123c.768 0 1.467-.084 2.099-.248s1.194-.391 1.688-.68c.493-.287.947-.617 1.358-.986.411-.371.809-.762 1.194-1.174.382-.385.739-.588 1.069-.619.275 0 .529.098.762.289.232.194.364.426.392.701.137.686-.042 1.371-.536 2.057s-1.187 1.311-2.078 1.873c-.893.563-1.908 1.022-3.047 1.381-1.138.353-2.271.533-3.396.533-1.453 0-2.756-.232-3.91-.699-1.152-.467-2.139-1.133-2.963-1.996-.821-.867-1.455-1.908-1.891-3.129-.439-1.219-.66-2.572-.66-4.053 0-1.51.24-2.93.721-4.262.479-1.33 1.138-2.496 1.975-3.498s1.847-1.791 3.025-2.367c1.179-.576 2.482-.863 3.91-.863zm-.659 2.922c-.797 0-1.521.199-2.181.597-.657.399-1.22.913-1.687 1.543-.467.631-.83 1.344-1.091 2.139-.261.797-.391 1.608-.391 2.43.273.054.57.09.885.103.316.014.665-.006 1.049-.062.96-.082 1.887-.211 2.779-.391.891-.178 1.735-.39 2.53-.639.66-.576 1.159-1.144 1.502-1.707.345-.562.448-1.158.31-1.791-.0448-.0216-.09344-.08736-.146432-.196768l-.040568-.090232c-.068-.166-.129-.261-.183-.289-.33-.521-.789-.926-1.379-1.215-.59-.287-1.243-.431-1.956-.431z"/><path d="m40.4764622 3.2621c-.015.605-.049 1.305-.104 2.1-.055.796-.111 1.627-.163 2.49-.057.865-.083 1.627-.083 2.285v.453c0 1.399-.015 2.772-.042 4.115-.027 1.346-.042 2.703-.042 4.075v5.308c0 .742-.007 1.442-.02 2.1-.014.66.006 1.303.062 1.933.027.577-.042.989-.205 1.237-.165.246-.467.437-.906.574-.468.496-.823.742-1.07.742-.55 0-.954-.158-1.215-.473-.261-.316-.446-.802-.555-1.46-.109-.661-.165-1.483-.165-2.471v-3.58c0-2.854.042-5.707.124-8.561.083-2.853.15-5.707.207-8.562.081-.768.128-1.426.143-1.975.014-.549.083-1.008.205-1.379.123-.371.33-.65.618-.844.29-.191.747-.314 1.378-.369.439-.056.816.02 1.134.227.314.205.525.541.638 1.008.053.082.074.425.061 1.027"/><path d="m51.3060622 11.4673c.989 0 1.901.15 2.737.453.838.301 1.565.713 2.182 1.234.617.522 1.097 1.139 1.44 1.852.345.715.514 1.496.514 2.346 0 1.427-.458 2.588-1.378 3.478-.92.893-2.161 1.572-3.726 2.037-1.041.328-1.892.563-2.551.7-.658.138-1.242.226-1.748.267-.509.041-.975.068-1.4.082-.426.016-.912.049-1.461.104-.302.412-.192 1.125.328 2.14.467.961 1.168 1.707 2.101 2.242.931.536 1.975.805 3.126.805h.124c.769 0 1.469-.084 2.101-.248.63-.164 1.192-.391 1.686-.68.495-.287.946-.617 1.359-.986.411-.371.81-.762 1.193-1.174.382-.385.74-.59 1.07-.619.274 0 .53.098.761.289.233.194.364.426.392.701.137.686-.04 1.371-.537 2.057-.493.686-1.185 1.311-2.077 1.873-.892.563-1.908 1.022-3.045 1.381-1.14.353-2.272.533-3.396.533-1.454 0-2.757-.232-3.912-.699-1.151-.467-2.139-1.133-2.962-1.996-.822-.867-1.455-1.908-1.893-3.129-.439-1.219-.658-2.572-.658-4.053 0-1.51.238-2.93.72-4.262.48-1.33 1.138-2.496 1.975-3.498s1.847-1.791 3.025-2.367c1.181-.576 2.483-.863 3.91-.863zm-.658 2.922c-.797 0-1.522.199-2.181.597-.659.399-1.222.913-1.688 1.543-.467.631-.829 1.344-1.09 2.139-.261.797-.392 1.608-.392 2.43.275.054.569.09.884.103.317.014.666-.006 1.053-.062.958-.082 1.884-.211 2.776-.391.892-.178 1.735-.39 2.531-.639.66-.576 1.159-1.144 1.502-1.707.343-.562.447-1.158.31-1.791-.057-.027-.118-.123-.188-.287-.066-.166-.128-.261-.183-.289-.331-.521-.789-.926-1.38-1.215-.588-.287-1.241-.431-1.954-.431z"/><path d="m79.6468622 4.6054c1.54.393 2.85.989 3.936 1.788 1.088.798 1.922 1.779 2.51 2.939s.881 2.449.881 3.865c0 1.448-.323 2.811-.971 4.094-.648 1.281-1.547 2.42-2.691 3.414-1.145.994-2.526 1.803-4.139 2.42-1.612.619-3.368.973-5.269 1.062-1.025.063-1.794.1-2.306.114-.512.015-.866.076-1.062.181-.198.106-.294.295-.294.565 0 .271.014.695.044 1.267.03.694.045 1.327.045 1.901 0 .572.017 1.131.047 1.672.027.543.059 1.093.09 1.65.029.559.073 1.154.136 1.787.059.694 0 1.192-.182 1.492-.18.301-.573.575-1.175.815-.936.361-1.637.369-2.103.023-.469-.347-.799-.98-.996-1.9-.196-.92-.301-2.096-.315-3.527-.017-1.432-.024-3.069-.024-4.909 0-1.023.015-2.177.046-3.459.029-1.281.068-2.584.112-3.912.046-1.326.106-2.615.181-3.867.075-1.25.143-2.359.205-3.324.029-.483.014-.815-.046-.994-.061-.182-.151-.348-.272-.498-.09-.09-.226-.166-.408-.225-.179-.062-.361-.115-.542-.16-.179-.045-.346-.106-.498-.18-.15-.076-.241-.205-.271-.385-.151-.785.082-1.431.702-1.945.616-.512 1.439-.92 2.465-1.221 1.024-.3 2.163-.527 3.415-.679 1.25-.151 2.449-.254 3.595-.317 1.898-.09 3.618.063 5.154.453zm-4.25 2.85c-.996 0-1.87.045-2.624.135-.752.092-1.341.242-1.764.453-.061.723-.128 1.658-.202 2.803-.075 1.148-.144 2.322-.203 3.527-.063 1.207-.115 2.352-.159 3.439-.044 1.084-.053 1.93-.023 2.532.302.211.738.316 1.312.316 1.416.152 2.759.084 4.026-.203 1.264-.285 2.38-.73 3.346-1.336.965-.601 1.749-1.348 2.352-2.236.602-.891.949-1.893 1.039-3.008.151-1.961-.437-3.522-1.764-4.682-1.326-1.16-3.106-1.74-5.336-1.74z"/><path d="m92.1454622 16.639c-.098 1.668-.145 3.307-.145 4.92 0 1.166.014 2.271.041 3.314.028 1.043.071 1.954.125 2.731.028.308-.041.599-.208.877-.167.277-.374.529-.625.75-.25.224-.514.396-.793.521-.278.125-.516.188-.707.188-.891 0-1.448-.5-1.67-1.5-.221-1-.334-2.516-.334-4.545 0-.502-.006-.994-.02-1.481-.014-.488.006-.966.063-1.439.138-1.418.201-2.988.187-4.713-.014-1.723.063-3.391.229-5.002.027-.418.154-.766.377-1.043.222-.277.464-.492.728-.646.264-.155.522-.256.773-.313.249-.055.444-.084.583-.084 1.167 0 1.71.779 1.625 2.336-.055 1.75-.131 3.461-.229 5.129" mask="url(#a)"/><path d="m92.3974622 3.795c-.182.334-.412.627-.689.875-.278.252-.598.446-.959.586-.362.139-.75.166-1.166.082-.559-.054-.94-.347-1.147-.875-.209-.529-.287-1.127-.23-1.793.054-.722.326-1.349.814-1.877.484-.527 1.104-.793 1.855-.793.36 0 .672.09.936.272.266.181.475.41.627.687.152.28.25.584.291.918.043.334.049.655.021.959-.056.307-.173.625-.353.959" mask="url(#a)"/><path d="m111.229362 29.9965c-.291.332-.619.568-.98.709-.221.305-.422.471-.606.498-.18.029-.463.043-.853.043-.916 0-1.989.021-3.209.062-1.225.042-2.426.09-3.61.147-1.181.055-2.2789998.111-3.2949998.166-1.013.057-1.785.084-2.314.084-.276 0-.569-.022-.875-.063-.305-.041-.576-.126-.811-.25-.238-.125-.426-.277-.564-.459-.139-.179-.18-.396-.125-.646 0-.193.103-.494.312-.896.209-.403.508-.799.897-1.188 1.14-1.445 2.181-2.775 3.127-3.984.945-1.207 1.8219998-2.354 2.6289998-3.44.804-1.084 1.554-2.133 2.25-3.146.695-1.016 1.377-2.051 2.045-3.108-.225-.054-.432-.084-.625-.084h-.627-.125c-1.086 0-2.133.041-3.149.127-1.0149998.082-2.1349998.123-3.3569998.123-.666 0-1.209-.019-1.625-.062-.418-.041-.739-.11-.959-.209-.223-.096-.389-.215-.502-.354-.111-.138-.18-.32-.207-.541-.055-.084-.051-.168.019-.252.071-.082.16-.234.272-.457.252-1.113.972-1.668 2.168-1.668h1.209 4.7129998c.25 0 .562-.007.937-.021.377-.014.744-.035 1.106-.063.361-.027.709-.048 1.043-.062s.584-.022.75-.022c.445 0 .937.028 1.48.084.543.057 1.043.161 1.5.313.459.154.828.353 1.107.605.278.25.374.569.292.959 0 .446-.196.889-.584 1.334-1.418 1.696-2.815 3.434-4.19 5.211-1.377 1.781-2.773 3.67-4.191 5.672-.334.475-.676.959-1.022 1.459-.347.5-.578.863-.6889998 1.086.0559998.139.1809998.207.3769998.207h.041c.806 0 1.611-.014 2.418-.041.806-.027 1.586-.055 2.336-.084.554 0 1.152.008 1.791.022.64.013 1.265.019 1.879.019h.916c.334 0 .619.057.855.168.236.109.424.236.563.375.138.139.242.272.312.397.068.125.117.214.146.271.03.307-.105.625-.396.959"/><path d="m130.104362 28.6058c-.293.334-.617.57-.979.709-.224.307-.425.473-.605.5-.182.027-.467.043-.855.043-.916 0-1.989.019-3.211.062-1.223.04-2.426.088-3.606.147-1.182.055-2.281.109-3.293.164-1.015.057-1.789.084-2.316.084-.278 0-.571-.022-.875-.063-.307-.041-.578-.125-.813-.25-.236-.125-.424-.277-.564-.457-.139-.181-.182-.396-.125-.646 0-.195.105-.494.312-.898.209-.403.508-.799.899-1.188 1.138-1.445 2.179-2.773 3.127-3.982.943-1.209 1.818-2.358 2.625-3.44.806-1.086 1.556-2.133 2.252-3.148.695-1.016 1.377-2.051 2.043-3.106-.221-.056-.43-.086-.625-.086h-.625-.125c-1.084 0-2.135.043-3.149.127-1.015.082-2.133.123-3.357.123-.666 0-1.209-.019-1.625-.06-.416-.043-.737-.112-.957-.209-.227-.098-.391-.215-.502-.356-.113-.138-.182-.318-.211-.541-.055-.084-.047-.166.023-.252.069-.082.16-.234.272-.457.248-1.111.972-1.668 2.166-1.668h1.211 4.711c.25 0 .564-.006.937-.019.377-.014.744-.035 1.106-.065.361-.027.709-.047 1.043-.062.332-.014.584-.02.75-.02.443 0 .937.028 1.478.082.545.057 1.045.161 1.502.313.461.154.828.355 1.106.605.279.25.375.571.291.959 0 .446-.194.891-.582 1.334-1.417 1.696-2.817 3.434-4.19 5.213-1.377 1.779-2.773 3.668-4.191 5.67-.334.473-.676.959-1.022 1.461-.349.5-.578.861-.689 1.084.056.141.181.207.377.207h.039c.808 0 1.613-.012 2.42-.041.804-.025 1.586-.055 2.336-.084.556 0 1.152.008 1.791.022.64.013 1.265.021 1.877.021h.918c.334 0 .619.057.853.166.238.111.424.236.565.375.138.139.242.273.312.397.07.125.119.216.146.271.028.307-.105.625-.396.959"/><path d="m143.823562 10.338c1.001.334 1.806.785 2.419 1.354.61.57 1.055 1.201 1.333 1.896.277.694.466 1.381.562 2.061.098.681.131 1.291.104 1.834-.028.541-.041.935-.041 1.185v1c0 .334-.014.696-.042 1.082-.029.668-.042 1.307-.042 1.916v1.834c0 .916.042 1.764.125 2.541.084.778.265 1.721.542 2.831.028.224-.021.453-.146.687-.125.238-.285.445-.479.625-.195.182-.417.334-.667.459s-.473.187-.666.187c-.501 0-.926-.25-1.272-.75-.348-.5-.646-1.138-.896-1.916-1.639 1.557-3.473 2.416-5.5 2.582-1.002.084-1.954.022-2.856-.187-.904-.207-1.689-.582-2.355-1.123-.666-.543-1.202-1.256-1.606-2.147-.402-.888-.603-1.998-.603-3.332 0-1.748.326-3.128.978-4.142.654-1.014 1.424-1.785 2.313-2.313.89-.527 1.814-.861 2.773-1 .959-.138 1.744-.193 2.354-.166 1.445.057 2.502.188 3.17.395.666.209 1.054.383 1.166.521.111.139.166.223.166.25 0-.277.021-.73.062-1.353.043-.625-.062-1.25-.312-1.875s-.715-1.152-1.397-1.582c-.68-.432-1.728-.59-3.146-.479-.973.055-1.758.188-2.354.395-.6.209-1.092.431-1.48.668-.389.234-.704.47-.938.707-.236.236-.48.424-.73.562-.11.084-.307.104-.584.063-.278-.043-.446-.063-.498-.063-.057 0-.12-.062-.19-.187-.068-.125-.131-.264-.185-.416-.057-.153-.114-.299-.168-.438-.057-.138-.098-.236-.125-.293.138-.609.429-1.166.875-1.666.445-.5.994-.927 1.646-1.291.652-.359 1.404-.65 2.252-.873.846-.222 1.729-.361 2.645-.418 1.529-.082 2.795.041 3.793.375zm-3.125 9.912c-.862 0-1.647.127-2.356.377-.709.248-1.32.582-1.834 1-.514.416-.91.903-1.187 1.457-.278.555-.418 1.139-.418 1.748 0 1.223.377 2.194 1.127 2.916.75.723 1.793 1.084 3.127 1.084.97 0 1.796-.152 2.478-.459.682-.304 1.326-.681 1.938-1.125.418-.525.714-1.082.898-1.666.178-.582.283-1.13.312-1.644.026-.514.006-.971-.064-1.375-.07-.402-.144-.688-.228-.854-.5-.386-1.063-.728-1.688-1.021-.627-.291-1.328-.438-2.105-.438z"/></g></svg>